<svg xmlns="http://www.w3.org/2000/svg" style="display:none">
  <symbol id="icon-home" viewBox="0 0 24 24" fill="none" stroke="currentColor" stroke-width="1.6"><path d="M3 10.5 12 3l9 7.5V21a1 1 0 0 1-1 1h-5v-7H9v7H4a1 1 0 0 1-1-1v-10.5Z"/></symbol>
  <symbol id="icon-cards" viewBox="0 0 24 24" fill="none" stroke="currentColor" stroke-width="1.6"><rect x="3" y="4" width="18" height="6" rx="2"/><rect x="3" y="12" width="12" height="8" rx="2"/></symbol>
  <symbol id="icon-search" viewBox="0 0 24 24" fill="none" stroke="currentColor" stroke-width="1.6"><circle cx="11" cy="11" r="7"/><path d="m21 21-4.3-4.3"/></symbol>
  <symbol id="icon-user" viewBox="0 0 24 24" fill="none" stroke="currentColor" stroke-width="1.6"><circle cx="12" cy="8" r="4"/><path d="M5.5 21a8.5 8.5 0 0 1 13 0"/></symbol>
  <symbol id="icon-moon" viewBox="0 0 24 24" fill="none" stroke="currentColor" stroke-width="1.6"><path d="M21 12.8A9 9 0 1 1 11.2 3a7 7 0 0 0 9.8 9.8Z"/></symbol>
  <symbol id="icon-sun" viewBox="0 0 24 24" fill="none" stroke="currentColor" stroke-width="1.6"><circle cx="12" cy="12" r="4"/><path d="M12 2v2m0 16v2M2 12h2m16 0h2M5 5l1.5 1.5M17.5 17.5 19 19M5 19l1.5-1.5M17.5 6.5 19 5"/></symbol>
  <symbol id="icon-plus" viewBox="0 0 24 24" fill="none" stroke="currentColor" stroke-width="1.6"><path d="M12 5v14M5 12h14"/></symbol>
  <symbol id="icon-edit" viewBox="0 0 24 24" fill="none" stroke="currentColor" stroke-width="1.6"><path d="M4 20h4l10-10-4-4L4 16v4Z"/></symbol>
  <symbol id="icon-trash" viewBox="0 0 24 24" fill="none" stroke="currentColor" stroke-width="1.6"><path d="M4 7h16M7 7v12a2 2 0 0 0 2 2h6a2 2 0 0 0 2-2V7M9 7V5a2 2 0 0 1 2-2h2a2 2 0 0 1 2 2v2"/></symbol>
  <symbol id="icon-table" viewBox="0 0 24 24" fill="none" stroke="currentColor" stroke-width="1.6"><rect x="3" y="4" width="18" height="16" rx="2"/><path d="M3 9h18M9 20V9"/></symbol>
  <symbol id="icon-calendar" viewBox="0 0 24 24" fill="none" stroke="currentColor" stroke-width="1.6"><rect x="3" y="5" width="18" height="16" rx="2"/><path d="M8 3v4M16 3v4M3 11h18"/></symbol>
  <symbol id="icon-link" viewBox="0 0 24 24" fill="none" stroke="currentColor" stroke-width="1.6"><path d="M10.5 13.5 13.5 10.5"/><path d="M9 7a5 5 0 0 1 7 7M8 17a5 5 0 0 1 0-10"/></symbol>
  <symbol id="icon-image" viewBox="0 0 24 24" fill="none" stroke="currentColor" stroke-width="1.6"><rect x="3" y="5" width="18" height="14" rx="2"/><path d="m10 13 2 2 4-4 4 4"/></symbol>
  <symbol id="icon-location" viewBox="0 0 24 24" fill="none" stroke="currentColor" stroke-width="1.6"><path d="M12 22s7-5.3 7-11a7 7 0 0 0-14 0c0 5.7 7 11 7 11Z"/><circle cx="12" cy="11" r="3"/></symbol>
  <!-- Social icons -->
  <symbol id="icon-instagram" viewBox="0 0 24 24" fill="none" stroke="currentColor" stroke-width="1.6"><rect x="3" y="3" width="18" height="18" rx="5"/><circle cx="12" cy="12" r="4"/><circle cx="17" cy="7" r="1"/></symbol>
  <symbol id="icon-facebook" viewBox="0 0 24 24" fill="none" stroke="currentColor" stroke-width="1.6"><path d="M14 9h3V6h-3a3 3 0 0 0-3 3v3H8v3h3v6h3v-6h3l1-3h-4V9a1 1 0 0 1 1-1Z"/></symbol>
  <symbol id="icon-linkedin" viewBox="0 0 24 24" fill="none" stroke="currentColor" stroke-width="1.6"><rect x="3" y="8" width="4" height="13"/><circle cx="5" cy="5" r="2"/><rect x="10" y="11" width="11" height="10"/><path d="M10 11a5 5 0 0 1 9 0"/></symbol>
  <symbol id="icon-whatsapp" viewBox="0 0 24 24" fill="none" stroke="currentColor" stroke-width="1.6"><path d="M20 12a8 8 0 1 1-14.7 4.3L4 21l4.7-1.3A8 8 0 1 1 20 12Z"/><path d="M8 9c0 4 4 7 7 7l2-2-2-1-1 1c-1.5-.5-3.5-2.5-4-4l1-1-1-2Z"/></symbol>
  <symbol id="icon-x" viewBox="0 0 24 24" fill="none" stroke="currentColor" stroke-width="1.6"><path d="M4 4l16 16M20 4 4 20"/></symbol>
  <symbol id="icon-tiktok" viewBox="0 0 24 24" fill="none" stroke="currentColor" stroke-width="1.6"><path d="M14 3v8a4 4 0 1 1-4 4"/><path d="M14 6a6 6 0 0 0 6 6"/></symbol>
  <symbol id="icon-youtube" viewBox="0 0 24 24" fill="none" stroke="currentColor" stroke-width="1.6"><rect x="3" y="7" width="18" height="10" rx="3"/><path d="m10 9 6 3-6 3V9Z"/></symbol>
  <symbol id="icon-github" viewBox="0 0 24 24" fill="none" stroke="currentColor" stroke-width="1.6"><path d="M9 19c-5 1.5-5-2.5-7-3m14 6v-3.87a3.37 3.37 0 0 0-.94-2.61c3.14-.35 6.44-1.54 6.44-7A5.44 5.44 0 0 0 18 2.77 5.07 5.07 0 0 0 17.91 0S16.73-.35 12 2a13.38 13.38 0 0 0-3 0C4.27-.35 3.09 0 3.09 0A5.07 5.07 0 0 0 3 2.77 5.44 5.44 0 0 0 .5 8.52c0 5.42 3.3 6.61 6.44 7A3.37 3.37 0 0 0 6 18.13V22"/></symbol>
  <symbol id="icon-globe" viewBox="0 0 24 24" fill="none" stroke="currentColor" stroke-width="1.6"><circle cx="12" cy="12" r="9"/><path d="M3 12h18M12 3a15 15 0 0 1 0 18M12 3a15 15 0 0 0 0 18"/></symbol>
  <!-- Kebab / more menu icon -->
  <symbol id="icon-ellipsis" viewBox="0 0 24 24" fill="currentColor">
    <circle cx="6" cy="12" r="1.6"/>
    <circle cx="12" cy="12" r="1.6"/>
    <circle cx="18" cy="12" r="1.6"/>
  </symbol>
  <!-- List and Cart icons -->
  <symbol id="icon-list" viewBox="0 0 24 24" fill="none" stroke="currentColor" stroke-width="1.6">
    <circle cx="4" cy="6" r="1.4"/>
    <circle cx="4" cy="12" r="1.4"/>
    <circle cx="4" cy="18" r="1.4"/>
    <path d="M9 6h12M9 12h12M9 18h12"/>
  </symbol>
  <symbol id="icon-cart" viewBox="0 0 24 24" fill="none" stroke="currentColor" stroke-width="1.6">
    <circle cx="9" cy="20" r="1.6"/>
    <circle cx="17" cy="20" r="1.6"/>
    <path d="M3 4h2l2 12h10l2-8H7"/>
  </symbol>
  <symbol id="icon-archive" viewBox="0 0 24 24" fill="none" stroke="currentColor" stroke-width="1.6">
    <rect x="3" y="4" width="18" height="4" rx="1"/>
    <path d="M6 8v10a2 2 0 0 0 2 2h8a2 2 0 0 0 2-2V8"/>
    <path d="M10 13h4"/>
  </symbol>
</svg>
